# xmcd
#
# Track frame offsets: 
#        150
#        12406
#        24836
#        41278
#        58055
#        76089
#        94123
#        114214
#        134579
#        158043
#        181507
#        204958
#        228409
#        250467
#        272825
#        289441
#
# Disc length: 4079 seconds
#
# Revision: 4
# Processed by: cddbd v1.5.2PL0 Copyright (c) Steve Scherf et al.
# Submitted via: ExactAudioCopy v0.99pb5
#
DISCID=cc0fed10
DTITLE=Dr. Willie L. Hill, Jr. - Approaching the Standards, Vol. 2
DYEAR=2000
DGENRE=Jazz
TTITLE0=Now's the Time - Listening Version (Charlie Parker)
TTITLE1=Now's the Time - Playalong (Charlie Parker)
TTITLE2=Sugar - Listening Version (Stanley Turrentine)
TTITLE3=Sugar - Playalong (Stanley Turrentine)
TTITLE4=Honeysuckle Rose - Listening Version (Fats Waller)
TTITLE5=Honeysuckel Rose - Playalong (Fats Waller)
TTITLE6=Maiden Voyage - Listening Version (Herbie Hancock)
TTITLE7=Maiden Voyage - Playalong (Herbie Hancock)
TTITLE8=Just Squeeze Me - Listening Version (Duke Ellington)
TTITLE9=Just Squeeye Me - Playalong (Duke Ellington)
TTITLE10=Caravan - Listening Version (Tizol/Ellington)
TTITLE11=Caravan - Playalong (Tizol/Ellington)
TTITLE12=In a Mellow Tone - Listening Version (Duke Ellington)
TTITLE13=In a Mellow Tone - Playalong (Duke Ellington)
TTITLE14=Perdido - Listening Version (Juan Tizol)
TTITLE15=Perdido - Playalong  (Juan Tizol)
EXTD=
EXTT0=
EXTT1=
EXTT2=
EXTT3=
EXTT4=
EXTT5=
EXTT6=
EXTT7=
EXTT8=
EXTT9=
EXTT10=
EXTT11=
EXTT12=
EXTT13=
EXTT14=
EXTT15=
PLAYORDER=
